<svg width="36" height="36" viewBox="0 0 36 36" fill="none" xmlns="http://www.w3.org/2000/svg">
<g clip-path="url(#clip0_33_906)">
<path d="M30.555 13.365L29.055 15.96L10.86 5.46001L12.36 2.86501L16.92 5.49001L18.96 4.93501L25.455 8.68501L26.01 10.74L30.555 13.365ZM9 28.5V10.5H16.605L27 16.5V28.5C27 29.2957 26.6839 30.0587 26.1213 30.6213C25.5587 31.1839 24.7957 31.5 24 31.5H12C11.2044 31.5 10.4413 31.1839 9.87868 30.6213C9.31607 30.0587 9 29.2957 9 28.5Z" fill="black"/>
<path d="M30.555 13.365L29.055 15.96L10.86 5.46001L12.36 2.86501L16.92 5.49001L18.96 4.93501L25.455 8.68501L26.01 10.74L30.555 13.365ZM9 28.5V10.5H16.605L27 16.5V28.5C27 29.2957 26.6839 30.0587 26.1213 30.6213C25.5587 31.1839 24.7957 31.5 24 31.5H12C11.2044 31.5 10.4413 31.1839 9.87868 30.6213C9.31607 30.0587 9 29.2957 9 28.5Z" fill="black"/>
</g>
<defs>
<clipPath id="clip0_33_906">
<rect width="36" height="36" fill="white"/>
</clipPath>
</defs>
</svg>
